<?xml version="1.0"?>
<!DOCTYPE svg PUBLIC "-//W3C//DTD SVG 1.1//EN" "http://www.w3.org/Graphics/SVG/1.1/DTD/svg11.dtd">
<svg xmlns="http://www.w3.org/2000/svg" xmlns:xl="http://www.w3.org/1999/xlink" version="1.1" viewBox="63 17 316 331" width="316pt" height="331pt"><metadata xmlns:dc="http://purl.org/dc/elements/1.1/"><dc:date>2013-04-28 09:52Z</dc:date><!-- Produced by OmniGraffle Professional 5.4.2 --></metadata><defs><linearGradient x1="0" x2="1" id="Gradient" gradientUnits="userSpaceOnUse"><stop offset="0" stop-color="white"/><stop offset=".5" stop-color="#ffcd0c"/><stop offset="1" stop-color="#aaa"/></linearGradient><linearGradient id="Obj_Gradient" xl:href="#Gradient" gradientTransform="translate(163 201) rotate(90) scale(69)"/><linearGradient id="Obj_Gradient_2" xl:href="#Gradient" gradientTransform="translate(222 257) rotate(90) scale(31)"/><marker orient="auto" overflow="visible" markerUnits="strokeWidth" id="FilledArrow_Marker" viewBox="-1 -3 6 6" markerWidth="6" markerHeight="6" color="black"><g><path d="M 3.2 0 L 0 -1.2 L 0 1.2 Z" fill="currentColor" stroke="currentColor" stroke-width="1"/></g></marker><linearGradient id="Obj_Gradient_3" xl:href="#Gradient" gradientTransform="translate(279.5 165) rotate(90) scale(105)"/><linearGradient id="Obj_Gradient_4" xl:href="#Gradient" gradientTransform="translate(337 130) rotate(90) scale(69)"/><linearGradient id="Obj_Gradient_5" xl:href="#Gradient" gradientTransform="translate(222 221) rotate(90) scale(43)"/><linearGradient id="Obj_Gradient_6" xl:href="#Gradient" gradientTransform="translate(230 54) rotate(90) scale(154)"/><linearGradient id="Obj_Gradient_7" xl:href="#Gradient" gradientTransform="translate(172.5 92) rotate(90) scale(121)"/><linearGradient id="Obj_Gradient_8" xl:href="#Gradient" gradientTransform="translate(274 109.5) rotate(90) scale(43)"/><linearGradient id="Obj_Gradient_9" xl:href="#Gradient" gradientTransform="translate(163 92) rotate(90) scale(54)"/></defs><g stroke="none" stroke-opacity="1" stroke-dasharray="none" fill="none" fill-opacity="1"><title>Canvas 1</title><g><title>Layer 1</title><rect x="124" y="201" width="78" height="69" fill="url(#Obj_Gradient)"/><rect x="124" y="201" width="78" height="69" stroke="black" stroke-linecap="round" stroke-linejoin="round" stroke-width="3"/><rect x="170" y="257" width="104" height="31" fill="url(#Obj_Gradient_2)"/><rect x="170" y="257" width="104" height="31" stroke="black" stroke-linecap="round" stroke-linejoin="round" stroke-width="3"/><path d="M 152.31082 271.43775 C 146.20783 291.95645 126.34949 330.09828 134 333 C 140.020295 335.2834 163.07784 315.74601 183.0608 300.14553" marker-end="url(#FilledArrow_Marker)" stroke="black" stroke-linecap="round" stroke-linejoin="round" stroke-width="4"/><rect x="232" y="165" width="95" height="105" fill="url(#Obj_Gradient_3)"/><rect x="232" y="165" width="95" height="105" stroke="black" stroke-linecap="round" stroke-linejoin="round" stroke-width="3"/><rect x="298" y="130" width="78" height="69" fill="url(#Obj_Gradient_4)"/><rect x="298" y="130" width="78" height="69" stroke="black" stroke-linecap="round" stroke-linejoin="round" stroke-width="3"/><rect x="198" y="221" width="48" height="43" fill="url(#Obj_Gradient_5)"/><rect x="198" y="221" width="48" height="43" stroke="black" stroke-linecap="round" stroke-linejoin="round" stroke-width="3"/><rect x="191" y="54" width="78" height="154" fill="url(#Obj_Gradient_6)"/><rect x="191" y="54" width="78" height="154" stroke="black" stroke-linecap="round" stroke-linejoin="round" stroke-width="3"/><rect x="154" y="92" width="37" height="121" fill="url(#Obj_Gradient_7)"/><rect x="154" y="92" width="37" height="121" stroke="black" stroke-linecap="round" stroke-linejoin="round" stroke-width="3"/><path d="M 243.94256 288.89793 C 267.626 306.59685 306.51108 344.90895 315 342 C 321.62037 339.73136 309.75637 312.3903 301.03194 289.30884" marker-end="url(#FilledArrow_Marker)" stroke="black" stroke-linecap="round" stroke-linejoin="round" stroke-width="4"/><path d="M 247.41345 233.47154 C 251.60855 231.98117 258.4024 229.91183 260 229 C 261.5976 228.08817 253.75032 229.91648 257 228 C 258.03837 227.38763 259.94474 226.45186 262.30304 225.34772" marker-end="url(#FilledArrow_Marker)" stroke="black" stroke-linecap="round" stroke-linejoin="round" stroke-width="4"/><path d="M 122.67862 213.83798 C 104.787534 204.22628 64.018785 194.17899 69 185 C 73.018537 177.59496 106.814313 170.75146 134.35148 163.79066" marker-end="url(#FilledArrow_Marker)" stroke="black" stroke-linecap="round" stroke-linejoin="round" stroke-width="4"/><path d="M 190.25579 200.55236 C 183.50454 212.36706 168.59443 226.73662 170 236 C 170.72914 240.80538 175.84908 244.23818 181.94303 247.36629" marker-end="url(#FilledArrow_Marker)" stroke="black" stroke-linecap="round" stroke-linejoin="round" stroke-width="4"/><rect x="250" y="109.5" width="48" height="43" fill="url(#Obj_Gradient_8)"/><rect x="250" y="109.5" width="48" height="43" stroke="black" stroke-linecap="round" stroke-linejoin="round" stroke-width="3"/><rect x="115.5" y="92" width="95" height="54" fill="url(#Obj_Gradient_9)"/><rect x="115.5" y="92" width="95" height="54" stroke="black" stroke-linecap="round" stroke-linejoin="round" stroke-width="3"/><path d="M 166.85754 90.513567 C 169.90472 68.011295 143.97946 26.251936 176 23 C 208.02054 19.748064 330.75929 53.41178 359 71 C 379.31455 83.651835 365.73253 97.951933 354.8287 112.12074" marker-end="url(#FilledArrow_Marker)" stroke="black" stroke-linecap="round" stroke-linejoin="round" stroke-width="4"/><path d="M 278.7934 153.96836 C 285.19496 184.64251 319.96337 240.66193 298 246 C 276.03663 251.33807 169.9977 180.0006 147 186 C 131.117215 190.14334 142.285864 227.55633 151.46749 255.0024" marker-end="url(#FilledArrow_Marker)" stroke="black" stroke-linecap="round" stroke-linejoin="round" stroke-width="4"/><path d="M 296.51066 169.35203 C 269.67645 172.5677 226.7507 195.22372 216 179 C 205.2493 162.77628 234.02013 86.639277 232 72 C 230.77845 63.147814 224.17873 69.670917 217.07931 77.62323" marker-end="url(#FilledArrow_Marker)" stroke="black" stroke-linecap="round" stroke-linejoin="round" stroke-width="4"/></g></g></svg>
